Coordinates
version=1
nRows=8
nColumns=40
inDegrees=yes

Units are S.I. units (second, meters, Newtons, ...)
Angles are in degrees.

endheader
time	pelvis_tilt	pelvis_list	pelvis_rotation	pelvis_tx	pelvis_ty	pelvis_tz	hip_flexion_r	hip_adduction_r	hip_rotation_r	knee_angle_r	knee_angle_r_beta	ankle_angle_r	subtalar_angle_r	mtp_angle_r	hip_flexion_l	hip_adduction_l	hip_rotation_l	knee_angle_l	knee_angle_l_beta	ankle_angle_l	subtalar_angle_l	mtp_angle_l	lumbar_extension	lumbar_bending	lumbar_rotation	arm_flex_r	arm_add_r	arm_rot_r	elbow_flex_r	pro_sup_r	wrist_flex_r	wrist_dev_r	arm_flex_l	arm_add_l	arm_rot_l	elbow_flex_l	pro_sup_l	wrist_flex_l	wrist_dev_l
     26.20114286	     -4.65259309	     -5.96809717	      4.43269595	      1.05165450	      0.92930230	      0.51524396	      8.16407589	      5.55890572	    -17.96546480	     12.95813521	     12.95813521	     12.22625637	      3.86194877	     -3.60127607	     44.03384810	    -12.80771285	      4.25378087	     48.52815003	     48.52815003	     11.05190834	    -18.09955003	     15.76917370	    -12.94118867	      6.85280048	      5.65418669	     29.85080087	    -16.15978796	      2.48937570	     54.28359316	     45.21262277	      0.00000000	      0.00000000	      0.69732874	     -7.18413431	     -3.72934498	     29.52870823	     47.40284929	      0.00000000	      0.00000000
     26.21228571	     -4.71147382	     -6.08026631	      4.53934761	      1.05071634	      0.92887681	      0.51484372	      7.38470845	      5.78920615	    -18.09116566	     12.26114250	     12.26114250	     12.43426707	      4.35431198	     -3.70997110	     44.22045478	    -12.49137269	      4.84494370	     45.67935430	     45.67935430	     10.73709072	    -17.41710708	     15.40632156	    -12.97534352	      6.96150723	      5.44246382	     31.79200807	    -16.06686166	      2.77605915	     57.10312379	     45.11463552	      0.00000000	      0.00000000	     -0.56043412	     -7.33625545	     -3.90380268	     27.39879551	     47.39480221	      0.00000000	      0.00000000
     26.22342857	     -4.78040212	     -6.26105334	      4.58751446	      1.05000900	      0.92834831	      0.51442350	      6.59055517	      6.06641307	    -18.42852381	     11.54922401	     11.54922401	     12.58941397	      5.25495562	     -4.03418011	     44.22990872	    -12.36218947	      5.24062534	     42.64802064	     42.64802064	      9.85914131	    -16.52246152	     13.29146313	    -12.97124434	      7.13529877	      6.27794321	     32.42478867	    -17.56250194	      4.00789542	     62.62238859	     44.90006233	      0.00000000	      0.00000000	     -0.63452444	     -7.19946460	     -4.51359738	     23.76527240	     47.45535118	      0.00000000	      0.00000000
     26.23457143	     -4.86062667	     -6.42267181	      4.61270006	      1.04944840	      0.92789990	      0.51400661	      5.77368649	      6.36453702	    -18.50373111	     10.77878939	     10.77878939	     12.74809381	      5.83059086	     -3.99517472	     44.17390482	    -12.23026929	      5.58041351	     39.73351440	     39.73351440	      9.81720045	    -15.23948408	     13.36647478	    -12.92437493	      7.27471550	      5.93964523	     34.48870371	    -17.03541148	      3.85492742	     65.00924102	     44.83982055	      0.00000000	      0.00000000	     -2.24572453	     -7.47287248	     -4.60953418	     22.59227390	     47.43495976	      0.00000000	      0.00000000
     26.24571429	     -4.94283901	     -6.62965652	      4.60667708	      1.04915814	      0.92737926	      0.51353819	      4.87106595	      6.71219657	    -18.73560520	      9.87912417	      9.87912417	     12.90296940	      6.75058235	     -3.94719374	     44.00374398	    -12.21624410	      5.73735662	     36.86003001	     36.86003001	      9.82713784	    -13.79238358	     13.36655057	    -12.87846332	      7.46279194	      5.70295391	     36.29891094	    -16.70308428	      4.00469999	     68.11553139	     44.74550493	      0.00000000	      0.00000000	     -3.80507402	     -7.69559221	     -4.68401483	     21.55526992	     47.40868749	      0.00000000	      0.00000000
     26.25685714	     -5.02116781	     -6.78020018	      4.52685131	      1.04910548	      0.92688438	      0.51303971	      3.98294366	      6.98086141	    -18.90643438	      9.06642368	      9.06642368	     13.06657825	      7.66615340	     -3.88747151	     43.66881279	    -12.23507748	      5.59292929	     34.04182270	     34.04182270	      9.74143508	    -12.43537404	     13.62012862	    -12.77610599	      7.58856262	      5.62032191	     37.92242069	    -16.46422907	      4.21841196	     71.18360567	     44.64957947	      0.00000000	      0.00000000	     -5.39007231	     -7.96126373	     -4.73961994	     20.77993997	     47.37863941	      0.00000000	      0.00000000
     26.26800000	     -5.09275773	     -7.06658463	      4.45244187	      1.04932555	      0.92615828	      0.51242595	      3.02560022	      7.39188746	    -19.26838880	      8.15113855	      8.15113855	     13.21986608	      8.94747140	     -3.72869627	     43.34854124	    -12.35843918	      5.45962175	     31.54128366	     31.54128366	      9.76406013	    -11.17816912	     13.92661659	    -12.72914171	      7.85802350	      5.60819814	     39.25691305	    -16.50864481	      4.67774239	     75.53223371	     44.50965436	      0.00000000	      0.00000000	     -6.99529597	     -8.10905793	     -4.77524851	     20.40446946	     47.33111725	      0.00000000	      0.00000000
     26.27914286	     -5.36410350	     -7.25694928	      4.27434395	      1.04947394	      0.92517781	      0.51177850	      2.52943832	      7.62006019	    -19.19757345	      7.73232998	      7.73232998	     13.43978560	      9.43840607	     -3.72994684	     43.05519733	    -12.42043759	      5.01953702	     29.09820977	     29.09820977	      9.53027030	    -10.30834338	     14.48449282	    -12.33140342	      7.99704937	      5.95604705	     40.97045089	    -16.49886189	      4.60112603	     77.40663531	     44.46229959	      0.00000000	      0.00000000	     -8.35753675	     -8.25585839	     -4.80859953	     20.03790725	     47.30187442	      0.00000000	      0.00000000
